<svg id="Capa_1" enable-background="new 0 0 512.002 512.002" height="512" viewBox="0 0 512.002 512.002" width="512" xmlns="http://www.w3.org/2000/svg"><g><g><path d="m389.331 207.192-53.33-47.19h-160l-52.94 45.99c-4.58 13.84-7.06 28.63-7.06 44.01h280c0-14.93-2.34-29.31-6.67-42.81z" fill="#ffa2c3"/><path d="m283.361 92.332-.01-.01-110.55 20.98v.01c-69.728 42.526-68.65 96.69-36.8 96.69 20 0 17.91-50 40-50s20 50 40 50 17.91-30 40-30 20 30 40 30 17.91-50 40-50 20 50 40 50c5.48 0 9.9-1 13.33-2.81 31.13-16.43-19.92-100.03-105.97-114.86z" fill="#ffda8f"/><path d="m239.511 54.932c-19.05-44.93-73.51-44.93-73.51-44.93s0 31.5 19.76 54.96c-33.65 1.76-59.76 25.04-59.76 25.04s19.63 17.51 46.8 23.3c18.21 3.89 39.82 2.51 61.15-12.96l.01-.01 5.56-45.39z" fill="#d8ec84"/><path d="m416.001 250.002c-11.388 0-308.858 0-320 0 0 81.59 61.08 154.04 140.01 164.66l-.01.1v48.85c-25.54 4.27-41.52 16.27-50.5 25.73-7.68 8.08-18.35 12.66-29.5 12.66h200c-11.15 0-21.82-4.58-29.5-12.66-8.98-9.46-24.96-21.46-50.5-25.73v-48.85l-.01-.1c78.93-10.62 140.01-83.071 140.01-164.66z" fill="#eefaff"/><circle cx="256.001" cy="80.002" fill="#ffa2c3" r="30"/></g><g><circle cx="256.002" cy="250.002" r="10"/><path d="m416.001 240.002h-10.352c-.651-9.854-2.259-19.583-4.815-29.081 6.354-6.575 8.931-16.257 7.115-27.692-2.96-18.641-17.209-40.921-38.117-59.6-20.998-18.76-46.983-32.349-74.111-38.927.181-1.55.281-3.116.281-4.701 0-18.364-12.444-33.867-29.34-38.546 2.738-16.927 13.141-22.184 13.649-22.429 4.981-2.379 7.094-8.346 4.716-13.33-2.377-4.984-8.345-7.097-13.331-4.72-2.4 1.144-21.803 11.273-25.184 40.185-.81.198-1.616.413-2.411.661-24.179-41.309-75.768-41.82-78.1-41.82-5.523 0-10 4.477-10 10 0 1.187.185 24.637 12.594 47.392-28.246 6.671-48.261 24.263-49.249 25.144-2.127 1.897-3.344 4.612-3.345 7.463s1.216 5.566 3.343 7.464c.661.59 12.659 11.162 31.014 19.062-27.445 20.921-43.995 45.632-45.188 68.427-.492 9.408 1.823 17.608 6.587 23.773-2.911 10.187-4.722 20.655-5.422 31.274h-10.334c-5.523 0-10 4.477-10 10 0 83.54 60.242 157.898 140 173.149v32.31c-23.546 5.748-38.818 17.584-47.748 26.991-5.769 6.069-13.879 9.55-22.252 9.55-5.523 0-10 4.478-10 10 0 5.523 4.477 10 10 10h200c5.522 0 10-4.477 10-10 0-5.522-4.478-10-10-10-8.373 0-16.483-3.48-22.247-9.545-8.935-9.411-24.207-21.248-47.753-26.996v-32.31c79.794-15.258 140-89.646 140-173.149 0-5.522-4.478-9.999-10-9.999zm-140-160c0 11.132-9.064 20-20 20-10.97 0-20-8.933-20-20 0-11.126 9.054-20 20-20 11.028 0 20 8.971 20 20zm-83.14-54.749c15.579 5.592 27.049 14.712 34.22 27.138-5.878 6.141-9.666 13.999-10.752 22.503-9.086-3.588-16.766-9.063-22.919-16.374-10.296-12.224-14.504-27.274-16.224-37.342 4.476.76 9.931 2.012 15.675 4.075zm-11.16 50.107c10.203 10.578 22.975 17.816 38.086 21.585.063.134.119.271.184.404-13.863 7.52-28.985 9.611-45.086 6.172-13.066-2.784-24.335-8.681-31.938-13.516 8.899-5.655 22.816-12.746 38.754-14.645zm-56.558 110.638c.772-14.764 14.304-39.633 49.647-62.141 5.135.875 10.192 1.319 15.164 1.319 15.267 0 29.732-4.133 43.236-12.339 6.637 4.611 14.602 7.165 22.812 7.165 12.941 0 24.921-6.285 32.338-16.478 24.917 5.536 48.905 17.81 68.168 35.02 20.702 18.496 29.943 36.831 31.689 47.822 1.482 9.335-2.293 11.328-3.531 11.981-2.051 1.082-5.047 1.654-8.664 1.654-2.845 0-7.348-11.894-9.512-17.609-5.463-14.431-12.262-32.391-30.488-32.391s-25.025 17.96-30.488 32.391c-2.164 5.716-6.667 17.609-9.512 17.609-3.71 0-5.552-2.084-10.406-9.777-5.081-8.053-12.76-20.223-29.594-20.223s-24.513 12.17-29.594 20.223c-4.855 7.693-6.697 9.777-10.406 9.777-2.845 0-7.348-11.894-9.511-17.609-5.463-14.431-12.263-32.391-30.489-32.391s-25.025 17.96-30.489 32.391c-2.163 5.716-6.667 17.609-9.511 17.609-2.862 0-5.171-.656-6.871-1.957-2.864-2.186-4.28-6.464-3.988-12.046zm189.718 306.004h-117.721c8.346-7.358 21.378-15.328 40.51-18.526 4.82-.806 8.351-4.977 8.351-9.863v-37.935c3.338.21 6.678.325 10 .325s6.662-.115 10-.325v37.935c0 4.887 3.531 9.058 8.352 9.863 19.127 3.197 32.16 11.166 40.508 18.526zm-58.86-86.006c-79.588 0-144.564-67.522-149.674-145.994h104.675c5.523 0 10-4.477 10-10s-4.477-10-10-10h-84.614c.529-6.962 1.61-13.842 3.239-20.594 2.053.379 4.177.594 6.374.594 16.658 0 23.067-16.927 28.216-30.528 3.111-8.218 7.372-19.472 11.784-19.472 4.413 0 8.673 11.254 11.784 19.472 5.149 13.602 11.558 30.528 28.216 30.528 15.266 0 22.233-11.042 27.32-19.105 4.989-7.907 7.375-10.895 12.68-10.895s7.69 2.988 12.68 10.895c5.087 8.063 12.054 19.105 27.32 19.105 16.658 0 23.066-16.927 28.216-30.528 3.111-8.218 7.372-19.472 11.784-19.472s8.673 11.254 11.784 19.472c5.149 13.602 11.558 30.528 28.216 30.528 2.236 0 4.367-.153 6.411-.428 1.607 6.701 2.682 13.526 3.207 20.428h-84.617c-5.522 0-10 4.477-10 10 0 5.522 4.478 10 10 9.99h104.674c-5.104 78.383-70.001 146.003-149.675 146.004z"/></g></g></svg>