<svg id="Capa_1" enable-background="new 0 0 512 512" height="512" viewBox="0 0 512 512" width="512" xmlns="http://www.w3.org/2000/svg"><g><g><path d="m79.867 274.464 8.991-30.913c1.02-3.506-.996-7.175-4.502-8.195l-30.913-8.991c-3.506-1.02-7.175.996-8.195 4.502l-8.991 30.913c-1.02 3.506.996 7.175 4.502 8.195l30.913 8.991c3.506 1.02 7.175-.996 8.195-4.502z" fill="#95d6a4"/></g><g><path d="m84.298 235.34-30.798-8.958c-3.538-1.029-7.24 1.005-8.269 4.543l-4.412 15.171 16.581 28.719 14.215 4.134c3.538 1.029 7.24-1.005 8.269-4.543l8.957-30.798c1.029-3.537-1.005-7.239-4.543-8.268z" fill="#78c2a4"/></g><g><path d="m432.133 274.464-8.991-30.913c-1.02-3.506.996-7.175 4.502-8.195l30.913-8.991c3.506-1.02 7.175.996 8.195 4.502l8.882 30.54c1.08 3.712-1.054 7.597-4.767 8.676l-30.54 8.882c-3.505 1.021-7.174-.995-8.194-4.501z" fill="#95d6a4"/></g><g><path d="m475.635 261.408-8.866-30.482c-1.029-3.538-4.731-5.572-8.269-4.543l-7.008 2.038 6.639 22.827c1.029 3.538-1.005 7.24-4.543 8.269l-23.79 6.919 2.318 7.971c1.029 3.538 4.731 5.572 8.269 4.543l30.482-8.866c3.713-1.08 5.847-4.964 4.768-8.676z" fill="#78c2a4"/></g><g><path d="m407.733 175.624c-9.238-7.686-15.127-18.583-17.902-31.809-29.194 35.17-61.902 53.062-89.594 44.501-21.613-6.681-36.651-28.395-44.238-59.238-7.587 30.844-22.624 52.557-44.238 59.238-27.692 8.56-60.4-9.332-89.594-44.501-2.775 13.226-8.663 24.123-17.902 31.809-20.422 16.991-53.268 15.079-89.761-1.728l82.613 143.09c1.442 2.498 4.107 4.036 6.991 4.036h303.78c2.884 0 5.549-1.539 6.991-4.036l82.613-143.09c-36.49 16.807-69.336 18.719-89.759 1.728z" fill="#ffd064"/></g><g><g><path d="m452.407 187.068-33.227 57.552c-16.548 28.663-47.131 46.32-80.228 46.32h-256.871l15.038 26.046c1.442 2.498 4.107 4.036 6.991 4.036h303.78c2.884 0 5.549-1.539 6.991-4.036l82.613-143.09c-15.973 7.356-31.247 11.859-45.087 13.172z" fill="#ffc250"/></g></g><g><circle cx="256" cy="114.292" fill="#ffd064" r="23.758"/></g><path d="m264.639 92.161c1.046 2.678 1.627 5.59 1.627 8.639 0 13.121-10.637 23.758-23.758 23.758-3.049 0-5.961-.581-8.639-1.627 3.457 8.848 12.059 15.119 22.131 15.119 13.121 0 23.758-10.637 23.758-23.758 0-10.073-6.271-18.674-15.119-22.131z" fill="#ffc250"/><g><circle cx="390.176" cy="133.922" fill="#ffd064" r="17.221"/></g><g><path d="m512 167.653c0 9.511-7.71 17.221-17.221 17.221-1.173 0-2.319-.117-3.426-.341 0 0-2.183-2.837-3.697-3.677-1.361-.755-4.93-.903-4.93-.903-3.189-3.126-5.168-7.482-5.168-12.3 0-9.511 7.71-17.221 17.221-17.221s17.221 7.71 17.221 17.221z" fill="#ffd064"/></g><g><circle cx="17.221" cy="167.653" fill="#ffd064" r="17.221"/></g><g><path d="m396.349 117.86c.535 1.664.831 3.435.831 5.278 0 9.511-7.71 17.221-17.221 17.221-2.178 0-4.254-.421-6.173-1.159 2.229 6.928 8.721 11.944 16.39 11.944 9.511 0 17.221-7.71 17.221-17.221 0-7.333-4.591-13.579-11.048-16.063z" fill="#ffc250"/></g><g><path d="m500.952 151.591c.535 1.664.831 3.436.831 5.278 0 9.511-7.71 17.221-17.221 17.221-2.178 0-4.254-.421-6.173-1.159 2.229 6.927 8.721 11.943 16.39 11.943 9.511 0 17.221-7.71 17.221-17.221 0-7.332-4.591-13.578-11.048-16.062z" fill="#ffc250"/></g><g><path d="m23.394 151.591c.536 1.664.832 3.436.832 5.278 0 9.511-7.71 17.221-17.221 17.221-2.178 0-4.254-.421-6.173-1.159 2.229 6.927 8.721 11.943 16.39 11.943 9.511 0 17.221-7.71 17.221-17.221-.001-7.332-4.592-13.578-11.049-16.062z" fill="#ffc250"/></g><g><path d="m251.325 274.655-22.765-22.765c-2.582-2.582-2.582-6.768 0-9.35l22.765-22.765c2.582-2.582 6.768-2.582 9.35 0l22.765 22.765c2.582 2.582 2.582 6.768 0 9.35l-22.765 22.765c-2.582 2.582-6.768 2.582-9.35 0z" fill="#e28086"/></g><path d="m283.44 242.54-22.765-22.765c-2.582-2.582-6.768-2.582-9.35 0l-4.825 4.825 17.94 17.94c2.582 2.582 2.582 6.768 0 9.35l-17.94 17.94 4.825 4.825c2.582 2.582 6.768 2.582 9.35 0l22.765-22.765c2.582-2.582 2.582-6.768 0-9.35z" fill="#dd636e"/><g><ellipse cx="368.256" cy="247.215" fill="#b1e4f9" rx="28.705" ry="18.829" transform="matrix(.314 -.949 .949 .314 17.901 519.207)"/></g><g><path d="m377.271 219.962c-.538-.178-1.083-.311-1.632-.414.476 4.969-.135 10.557-1.993 16.174-4.707 14.231-15.726 23.541-25.259 21.753.799 8.347 4.666 14.946 10.855 16.993 9.873 3.266 21.913-6.289 26.891-21.34s1.011-29.9-8.862-33.166z" fill="#90d8f9"/></g><g><ellipse cx="143.744" cy="247.215" fill="#b1e4f9" rx="18.829" ry="28.705" transform="matrix(.949 -.314 .314 .949 -70.363 57.648)"/></g><g><path d="m161.62 241.302c-4.78-14.452-16.069-23.828-25.7-21.662 2.709 3.436 5.004 7.658 6.585 12.438 4.979 15.051 1.011 29.9-8.862 33.166-.393.13-.791.233-1.191.322 5.823 7.386 13.568 11.131 20.306 8.902 9.873-3.265 13.841-18.114 8.862-33.166z" fill="#90d8f9"/></g><g><g><path d="m284.508 457.905c24.629 29.282 68.782 32.453 97.366 6.486 25.945-23.57 29.451-63.764 7.976-91.468-18.311-23.622-48.807-31.651-75.248-22.706-3.497 1.183-7.297 1.111-10.768-.148l-26.586-9.641c-1.985-.72-4.004.979-3.635 3.058l4.943 27.843c.643 3.623.079 7.372-1.682 10.603-12.947 23.762-10.834 54.015 7.634 75.973z" fill="#e28086"/></g><g><path d="m389.851 372.923c-2.291-2.955-4.772-5.666-7.412-8.13 2.741 7.458 4.239 15.516 4.239 23.925 0 38.305-31.052 69.357-69.357 69.357-15.721 0-30.214-5.238-41.847-14.053 2.383 4.874 5.384 9.543 9.035 13.883 24.629 29.282 68.782 32.453 97.366 6.486 25.945-23.57 29.451-63.765 7.976-91.468z" fill="#dd636e"/></g><g><g><g><path d="m352.924 390.428c-7.481-.28-14.051 3.724-17.458 9.752-.093.164-.326.164-.418 0-3.407-6.028-9.978-10.032-17.459-9.752-9.925.372-18.007 8.398-18.441 18.321-.338 7.731 3.898 14.508 10.228 17.85 4.725 2.495 9.192 5.45 13.19 8.995l1.491 1.322c3.604 3.195 6.863 6.76 9.723 10.635l.898 1.217c.288.39.871.39 1.158 0l.898-1.217c2.86-3.876 6.118-7.44 9.722-10.635l1.491-1.322c3.998-3.544 8.465-6.5 13.19-8.995 6.33-3.342 10.567-10.119 10.228-17.85-.434-9.924-8.515-17.95-18.441-18.321z" fill="#f9f6f9"/></g></g></g><g><g><path d="m371.366 408.748c-.435-9.923-8.516-17.949-18.442-18.32-.597-.022-1.185-.008-1.77.023 1.478 2.572 2.377 5.513 2.515 8.644.339 7.731-3.898 14.508-10.228 17.85-4.725 2.495-9.192 5.451-13.19 8.995l-1.491 1.322c-2.594 2.299-5.005 4.792-7.22 7.452.344.291.689.58 1.027.879l1.491 1.322c3.604 3.195 6.863 6.76 9.723 10.635l.898 1.217c.288.39.871.39 1.158 0l.898-1.217c2.86-3.876 6.118-7.44 9.722-10.635l1.491-1.322c3.998-3.544 8.465-6.5 13.19-8.995 6.33-3.342 10.567-10.119 10.228-17.85z" fill="#dddaec"/></g></g></g><g><path d="m84.52 149.968c-29.428-24.752-32.615-69.125-6.518-97.852 23.687-26.074 64.083-29.598 91.925-8.016 23.74 18.403 31.809 49.05 22.819 75.624-1.189 3.515-1.117 7.334.148 10.822l9.689 26.719c.723 1.995-.984 4.024-3.073 3.654l-27.982-4.968c-3.641-.646-7.409-.079-10.656 1.69-23.88 13.012-54.284 10.888-76.352-7.673z" fill="#95d6a4"/></g><g><path d="m202.584 157.264-9.689-26.718c-1.265-3.488-1.338-7.307-.148-10.822 7.394-21.856 3.238-46.462-11.675-64.75 1.361 5.364 2.089 10.981 2.089 16.768 0 37.543-30.434 67.977-67.977 67.977-21.337 0-40.369-9.838-52.832-25.218 3.358 13.395 10.794 25.899 22.169 35.467 22.068 18.561 52.472 20.684 76.352 7.672 3.247-1.77 7.015-2.337 10.656-1.69l27.982 4.968c2.089.37 3.796-1.659 3.073-3.654z" fill="#78c2a4"/></g><path d="m165.257 73.323c-.002-2.006-.802-3.931-2.224-5.348-1.418-1.416-3.341-2.21-5.344-2.21-.003 0-.006 0-.009 0l-20.948.027c-4.18.005-7.564 3.398-7.559 7.578.005 4.176 3.392 7.558 7.568 7.558h.01l2.865-.004-12.561 12.561-5.678-5.678c-4.523-4.523-11.885-4.523-16.41 0l-17.292 17.294c-2.956 2.955-2.956 7.746 0 10.703 1.478 1.477 3.414 2.216 5.351 2.216s3.874-.739 5.351-2.216l14.795-14.796 5.679 5.679c4.523 4.521 11.884 4.52 16.41-.001l14.884-14.884.003 2.49c.005 4.176 3.392 7.558 7.568 7.558h.009c4.18-.005 7.564-3.398 7.559-7.578z" fill="#f9f6f9"/><g fill="#ffc250"><path d="m205.633 235.881c5.676.702 11.402-1.243 15.488-5.348 2.955-2.955 2.955-7.747 0-10.703-2.956-2.954-7.748-2.955-10.703.001-1.073 1.072-2.319 1.1-2.965 1.024-.647-.079-1.85-.404-2.636-1.703l-3.072-5.074c-2.687-4.928-10.381-4.933-13.076-.001l-3.072 5.075c-.786 1.299-1.989 1.624-2.636 1.703-.647.076-1.892.048-2.965-1.024-2.956-2.956-7.747-2.955-10.703-.001-2.955 2.955-2.956 7.747-.001 10.703 4.086 4.105 9.812 6.05 15.488 5.348 3.965-.48 7.58-2.171 10.427-4.798 2.846 2.628 6.462 4.318 10.426 4.798z"/><path d="m332.005 219.832c-1.073 1.072-2.32 1.1-2.965 1.024-.647-.079-1.85-.404-2.636-1.703l-3.072-5.075c-2.688-4.928-10.384-4.928-13.076.001l-3.072 5.074c-.786 1.299-1.989 1.624-2.636 1.703-.647.076-1.892.048-2.965-1.024-2.956-2.956-7.748-2.955-10.703-.001-2.955 2.955-2.956 7.747 0 10.703 4.086 4.105 9.812 6.05 15.488 5.348 3.964-.48 7.58-2.171 10.427-4.798 2.847 2.627 6.462 4.318 10.427 4.798 5.676.702 11.402-1.243 15.488-5.348 2.955-2.955 2.955-7.747 0-10.703-2.959-2.954-7.75-2.955-10.705.001z"/><path d="m416.791 235.881c3.964-.48 7.58-2.17 10.426-4.798 2.846 2.628 6.462 4.318 10.426 4.798.766.093 1.53.139 2.289.139 4.936 0 9.65-1.937 13.199-5.487 2.955-2.955 2.955-7.747 0-10.703-2.956-2.954-7.748-2.955-10.703.001-1.073 1.072-2.32 1.1-2.965 1.024-.647-.079-1.849-.404-2.635-1.703l-3.072-5.075c-1.31-2.261-3.859-3.76-6.473-3.748-2.643-.056-5.278 1.446-6.603 3.748l-3.072 5.075c-.786 1.299-1.989 1.624-2.635 1.703-.647.076-1.892.048-2.965-1.024-2.956-2.956-7.748-2.955-10.703-.001-2.955 2.955-2.956 7.747 0 10.703 3.549 3.549 8.263 5.487 13.199 5.487.756 0 1.521-.046 2.287-.139z"/></g><path d="m427.217 231.083c2.846 2.628 6.462 4.318 10.426 4.798.766.093 1.53.139 2.289.139 4.936 0 9.65-1.937 13.199-5.487 2.955-2.955 2.955-7.747 0-10.702-2.956-2.954-7.748-2.955-10.703.001-1.073 1.072-2.32 1.1-2.965 1.024-.647-.079-1.849-.404-2.635-1.703l-1.507-2.489-8.541 14.793c.144-.126.296-.243.437-.374z" fill="#e28086"/><path d="m99.994 219.832c-1.073 1.072-2.319 1.1-2.965 1.024-.647-.079-1.849-.404-2.635-1.703l-3.072-5.075c-2.688-4.929-10.384-4.929-13.076 0l-3.072 5.075c-.786 1.299-1.989 1.624-2.635 1.703-.647.076-1.892.048-2.965-1.024-2.956-2.956-7.748-2.955-10.703-.001-2.955 2.955-2.956 7.747 0 10.703 4.086 4.105 9.812 6.05 15.488 5.348 3.964-.48 7.58-2.17 10.426-4.798 2.846 2.628 6.462 4.318 10.426 4.798 5.676.702 11.402-1.243 15.488-5.348 2.955-2.955 2.955-7.747 0-10.703-2.958-2.954-7.75-2.955-10.705.001z" fill="#ffc250"/></g></svg>